<svg xmlns="http://www.w3.org/2000/svg" viewBox="0 0 512 512">
  <rect width="512" height="512" rx="112" fill="#9333ea" />
  
  <rect x="156" y="180" width="200" height="220" rx="32" fill="#ffffff" />
  
  <rect x="186" y="140" width="140" height="60" fill="#ffffff" />
  
  <rect x="152" y="90" width="208" height="52" rx="16" fill="#ffffff" />
  
  <line x1="140" y1="144" x2="372" y2="144" stroke="#9333ea" stroke-width="6" stroke-linecap="round" />
  
  <line x1="170" y1="184" x2="342" y2="184" stroke="#9333ea" stroke-width="6" stroke-linecap="round" />
  
  <path d="M196 100v32m20-32v32m20-32v32m20-32v32m20-32v32m20-32v32m20-32v32" stroke="#9333ea" stroke-width="6" stroke-linecap="round" />
  
  <rect x="192" y="224" width="128" height="128" rx="16" fill="#d8b4fe" />

  <path d="M240 316 V260 h20 c20 0, 20 28, 0 28 h-20" fill="none" stroke="#9333ea" stroke-width="16" stroke-linecap="round" stroke-linejoin="round" />
</svg>
